<svg xmlns="http://www.w3.org/2000/svg" viewBox="0 0 439.44 252.64"><defs><style>.cls-1,.cls-3{fill:#006837;}.cls-1{stroke:#006837;}.cls-1,.cls-2{stroke-miterlimit:10;stroke-width:10px;}.cls-2{fill:#fff;stroke:#007f17;}</style></defs><title>cellular-logo</title><g id="Layer_2" data-name="Layer 2"><g id="Layer_1-2" data-name="Layer 1"><path class="cls-1" d="M433.29,219.15c-2.45,13-14.51,24.49-27.9,24.57-33-2-66-1.65-99-3.32-27.34-1.39-54.43-5.77-81.85-5.91-64.79-.33-129.91,8.09-194.44,13-15.46,2-23.62-13.94-22.27-27.06,5.29-43.64,6.68-90.62.19-134.18C6.55,73.28,16.49,60.75,30.37,62.59c33.52,2.82,66.5,6.85,100.18,4.22,30-2.35,59.65-6.52,89.84-5.07,24.78,1.19,49.41,4.39,74.19,5.6,39.07,1.91,77.12-4.88,115.84-9.1C425.5,57,438.56,68.16,436,84.16,431.73,129.54,442.49,174.41,433.29,219.15Z" transform="translate(-2.69)"/><path class="cls-2" d="M112.47,99.82c1.75,13.55-11.25,27-24.2,27.61-17.36-1.76-34.09-6.23-51.33-8.75-12.77-1.27-25-9.4-27.39-22.52-.52-3.61-.8-5.42-1.36-9C6.06,73.5,16.7,62.39,30.35,63.52,48.24,65,66.09,67,84,68.37c12.74,1.45,24.74,10.43,27.42,23.33C111.84,94.94,112.07,96.55,112.47,99.82Z" transform="translate(-2.69)"/><path class="cls-2" d="M216.94,94c.83,14.65-15.13,14-24.82,11.35-18.11-3-32.11-.62-49.5,5.23-11,4.61-22.84-.85-24.33-13.16-.4-3.13-.62-4.67-1-7.77C115.83,76.39,127.45,67,139.77,66c17.46-1.69,34.88-3.44,52.39-4.46,13.15-.28,25.26,9.89,24.79,23.75C216.95,88.78,216.95,90.53,216.94,94Z" transform="translate(-2.69)"/><path class="cls-2" d="M323.18,99.93c4.9,14.55-8.88,24.5-21.61,27-19.19,3-37.41,5.59-56.87,4-14.74-1.56-21.5-22.11-22-34.25,0-3.75,0-5.63.05-9.38,0-12.56,9.73-24.19,22.81-23.88,14.95,1.31,29.88,2.62,44.85,3.63C303,68.79,315.31,79.6,319.91,91.45,321.24,94.84,321.93,96.53,323.18,99.93Z" transform="translate(-2.69)"/><path class="cls-2" d="M435,94.42c-.4,14-11.87,19.59-24.33,18.08-17-1.92-34.46,3.65-50.81,7.54-13.69,4-25-9.1-29.65-20.19-1.27-3.4-2-5.08-3.3-8.47-5.16-13.76,7.23-24.81,20.47-25.42,21.05-2.5,42-5.52,63.12-7.73,15-1.21,28.06,9.89,25.47,25.83C435.58,88.22,435.37,90.31,435,94.42Z" transform="translate(-2.69)"/><path class="cls-2" d="M114.07,158.77c.06,14.28-10.36,30.69-24.6,33.93-18.55.88-35.21-2.45-53.31-6.41-13.55-2.65-24.31-15.93-24.87-29.42l.06-9.45c.73-12.51,10.85-29.29,25.57-27.62,17.25,2.54,34,7,51.37,8.71,12.06.45,25.76,7.23,25.75,21Z" transform="translate(-2.69)"/><path class="cls-2" d="M217,155.59c.69,13.4-11.88,24.49-24.81,23-16.82-3-33.66-6.57-50.84-5.14-11.45,1.65-22.34-5.13-21.67-17.67l0-9.09c.73-13.62,9.45-29.11,22.89-34,17.4-5.69,31.48-7.93,49.54-4.89,14.51,5.38,24.36,23.29,24.82,38.24Z" transform="translate(-2.69)"/><path class="cls-2" d="M328.12,160.9c.25,14.24-11.62,28.47-25.76,29.86-18.47-.38-36.13-3.26-54.33-6.3a28.78,28.78,0,0,1-25.26-27l-.08-8.95c-.91-13.19,10.84-18.33,22.12-15.75,19.41,1.6,37.62-.79,56.79-3.7,13.28-1.63,27.3,7.89,26.54,22.42C328.13,155.25,328.13,157.14,328.12,160.9Z" transform="translate(-2.69)"/><path class="cls-2" d="M436.37,157.44c2.49,13.89-10.53,24.66-23.44,23.77-18-2.12-35.64-3.83-53.83-3.2-12.41,1.32-24.25-6.27-23.95-19.69,0-3.62,0-5.43,0-9.05.62-13.6,11.21-25.6,24.66-28.26,16.37-3.84,33.78-9.29,50.82-7.36,14.09,3.24,23.21,20.75,24.67,34.21C435.73,151.69,436,153.6,436.37,157.44Z" transform="translate(-2.69)"/><path class="cls-2" d="M110.85,216.84c-1.8,13.93-14.21,24.35-27.64,26-17.72,1.64-35.43,3.33-53.18,4.66-15.4,2-23.54-13.89-22.2-27,.53-4.28.81-6.43,1.32-10.68,1.87-12.93,12-27.46,27-23.53,18.1,4,34.75,7.3,53.31,6.41,10.33-1.6,25.67,1,22.7,15.33C111.67,211.56,111.39,213.32,110.85,216.84Z" transform="translate(-2.69)"/><path class="cls-2" d="M219.14,211.5c1.09,13.39-11.64,22.13-23.79,22.76-18.62,1-37.22,2.23-55.82,3.56-13.65,1.61-24.31-10.69-22.86-23.64.49-3.71.74-5.57,1.19-9.28,2-11.66,9.26-31,23.46-32.48,17.18-1.52,34,2,50.82,5,12.65,3.29,23.86,13.06,26.13,26.29C218.6,206.84,218.79,208.39,219.14,211.5Z" transform="translate(-2.69)"/><path class="cls-2" d="M327,218a23.92,23.92,0,0,1-25.13,22.13C285,239,268.19,237,251.34,235.61c-12.44-.61-23.91-11.23-26.1-23.22-.36-3.11-.55-4.65-.89-7.79-1-13.12,11.2-22.34,23.67-20.14,18.2,3,35.86,5.92,54.33,6.3,11.59-.38,25.7,5.26,25,19C327.24,213.09,327.15,214.73,327,218Z" transform="translate(-2.69)"/><path class="cls-2" d="M433.49,218.21c-2.46,13-14.61,24.4-28,24.47-16.25-.93-32.48-2.21-48.75-2.82-12.55-.82-23.29-11.06-22.77-24,.19-3.46.29-5.18.47-8.65,1.32-12.27,10.49-28.7,24.63-29.21,18.2-.63,35.79,1.08,53.83,3.2,12.4,2.3,26.25,13.36,22.5,27.65C434.7,212.6,434.28,214.47,433.49,218.21Z" transform="translate(-2.69)"/><path class="cls-3" d="M37.72,25.24,28,27a7.07,7.07,0,0,0-2.23-4.39,6.74,6.74,0,0,0-4.52-1.48,7.38,7.38,0,0,0-5.89,2.55q-2.2,2.55-2.2,8.53,0,6.64,2.23,9.39a7.33,7.33,0,0,0,6,2.74A6.66,6.66,0,0,0,26,42.73q1.79-1.6,2.53-5.5l9.7,1.65Q36.7,45.56,32.41,49t-11.5,3.41q-8.19,0-13.06-5.17T3,32.91q0-9.25,4.89-14.4t13.22-5.15q6.82,0,10.85,2.94A16.27,16.27,0,0,1,37.72,25.24Z" transform="translate(-2.69)"/><path class="cls-3" d="M66.83,39.66l9.84,1.65a16.15,16.15,0,0,1-6,8.24,17.61,17.61,0,0,1-10.25,2.83Q50.7,52.38,46,46q-3.69-5.1-3.69-12.87,0-9.28,4.85-14.54a16,16,0,0,1,12.27-5.26q8.33,0,13.15,5.5T77.2,35.72H52.45a10,10,0,0,0,2.39,6.84A7.48,7.48,0,0,0,60.54,45a6,6,0,0,0,3.9-1.27A7.82,7.82,0,0,0,66.83,39.66Zm.56-10q-.11-4.29-2.21-6.52a7.13,7.13,0,0,0-10.48.12,9.12,9.12,0,0,0-2.07,6.4Z" transform="translate(-2.69)"/><path class="cls-3" d="M85.25,51.54V0h9.88V51.54Z" transform="translate(-2.69)"/><path class="cls-3" d="M105.26,51.54V0h9.88V51.54Z" transform="translate(-2.69)"/><path class="cls-3" d="M149.84,51.54V45.95a14.39,14.39,0,0,1-5.36,4.71,15,15,0,0,1-7,1.72,13.71,13.71,0,0,1-6.75-1.65,9.75,9.75,0,0,1-4.32-4.64,20.7,20.7,0,0,1-1.34-8.26V14.2h9.88V31.36q0,7.88.54,9.65a5.26,5.26,0,0,0,2,2.81,6.1,6.1,0,0,0,3.66,1,7.77,7.77,0,0,0,4.54-1.39A7.06,7.06,0,0,0,148.39,40q.74-2.06.74-10.07V14.2H159V51.54Z" transform="translate(-2.69)"/><path class="cls-3" d="M169.24,51.54V0h9.88V51.54Z" transform="translate(-2.69)"/><path class="cls-3" d="M196.63,25.59l-9-1.62a14,14,0,0,1,5.2-8q3.69-2.6,11-2.6,6.61,0,9.84,1.56a9.82,9.82,0,0,1,4.55,4q1.32,2.41,1.32,8.84l-.11,11.53a40,40,0,0,0,.47,7.26,21.18,21.18,0,0,0,1.78,5h-9.77q-.39-1-.95-2.92-.25-.88-.35-1.16a17.82,17.82,0,0,1-5.41,3.69,15.51,15.51,0,0,1-6.15,1.23q-5.77,0-9.09-3.13a10.4,10.4,0,0,1-3.32-7.91,10.62,10.62,0,0,1,1.51-5.64,9.87,9.87,0,0,1,4.24-3.8,33.09,33.09,0,0,1,7.86-2.3,53.74,53.74,0,0,0,9.6-2.43v-1q0-2.85-1.41-4.06t-5.31-1.21A7.07,7.07,0,0,0,199,22,7.21,7.21,0,0,0,196.63,25.59Zm13.22,8a61.61,61.61,0,0,1-6,1.51,18.11,18.11,0,0,0-5.38,1.72,4.12,4.12,0,0,0-1.93,3.48,4.84,4.84,0,0,0,1.55,3.59A5.4,5.4,0,0,0,202,45.42a8.55,8.55,0,0,0,5.1-1.76,6.19,6.19,0,0,0,2.36-3.27,19.5,19.5,0,0,0,.39-4.82Z" transform="translate(-2.69)"/><path class="cls-3" d="M238.75,51.54h-9.88V14.2H238v5.31a16,16,0,0,1,4.24-5,7.8,7.8,0,0,1,4.27-1.2,12.54,12.54,0,0,1,6.5,1.86L250,23.84a8.67,8.67,0,0,0-4.64-1.62,5.49,5.49,0,0,0-3.52,1.14,7.81,7.81,0,0,0-2.27,4.13q-.83,3-.83,12.52Z" transform="translate(-2.69)"/></g></g></svg>