<svg xmlns="http://www.w3.org/2000/svg" viewBox="0 0 439.44 240.73"><defs><style>.cls-1,.cls-4{fill:#006837;}.cls-1{stroke:#006837;}.cls-1,.cls-2{stroke-miterlimit:10;stroke-width:10px;}.cls-2,.cls-5{fill:#5bd870;}.cls-2{stroke:#007f17;}.cls-3{fill:#009245;}</style></defs><title>cellular-logo</title><g id="Layer_2" data-name="Layer 2"><g id="Layer_1-2" data-name="Layer 1"><path class="cls-1" d="M432.17,207.24c-2.45,13-14.51,24.49-27.9,24.57-33-2-66-1.65-99-3.32-27.34-1.39-54.43-5.77-81.85-5.91-64.79-.33-129.91,8.09-194.44,13-15.46,2-23.62-13.94-22.27-27.06,5.29-43.64,6.68-90.62.19-134.18C5.43,61.37,15.37,48.84,29.25,50.68c33.52,2.82,66.5,6.85,100.18,4.22,30-2.35,59.65-6.52,89.84-5.07,24.78,1.19,49.41,4.39,74.19,5.6,39.07,1.91,77.12-4.88,115.84-9.1,15.09-1.22,28.15,9.92,25.56,25.91C430.61,117.63,441.37,162.5,432.17,207.24Z" transform="translate(-1.57)"/><path class="cls-2" d="M111.35,87.91c1.75,13.55-11.25,27-24.2,27.61-17.36-1.76-34.09-6.23-51.33-8.75-12.77-1.27-25-9.4-27.39-22.52-.52-3.61-.8-5.42-1.36-9C4.94,61.59,15.58,50.48,29.23,51.61,47.12,53.11,65,55.07,82.87,56.46c12.74,1.45,24.74,10.43,27.42,23.33C110.72,83,110.95,84.64,111.35,87.91Z" transform="translate(-1.57)"/><path class="cls-2" d="M215.82,82.11c.83,14.65-15.13,14-24.82,11.35-18.11-3-32.11-.62-49.5,5.23-11,4.61-22.84-.85-24.33-13.16-.4-3.13-.62-4.67-1-7.77-1.42-13.28,10.2-22.66,22.52-23.66,17.46-1.69,34.88-3.44,52.39-4.46,13.15-.28,25.26,9.89,24.79,23.75C215.83,76.87,215.83,78.62,215.82,82.11Z" transform="translate(-1.57)"/><path class="cls-2" d="M322.06,88c4.9,14.55-8.88,24.5-21.61,27-19.19,3-37.41,5.59-56.87,4-14.74-1.56-21.5-22.11-22-34.25,0-3.75,0-5.63.05-9.38,0-12.56,9.73-24.19,22.81-23.88,14.95,1.31,29.88,2.62,44.85,3.63,12.67,1.65,24.94,12.46,29.54,24.31C320.12,82.93,320.81,84.62,322.06,88Z" transform="translate(-1.57)"/><path class="cls-2" d="M433.88,82.51c-.4,14-11.87,19.59-24.33,18.08-17-1.92-34.46,3.65-50.81,7.54-13.69,4-25-9.1-29.65-20.19-1.27-3.4-2-5.08-3.3-8.47-5.16-13.76,7.23-24.81,20.47-25.42,21.05-2.5,42-5.52,63.12-7.73,15-1.21,28.06,9.89,25.47,25.83C434.46,76.31,434.25,78.4,433.88,82.51Z" transform="translate(-1.57)"/><path class="cls-2" d="M112.95,146.87c.06,14.28-10.36,30.69-24.6,33.93-18.55.88-35.21-2.45-53.31-6.41C21.5,171.72,10.74,158.45,10.17,145l.06-9.45C11,123,21.08,106.22,35.8,107.89c17.25,2.54,34,7,51.37,8.71,12.06.45,25.76,7.23,25.75,21Z" transform="translate(-1.57)"/><path class="cls-2" d="M215.83,143.68c.69,13.4-11.88,24.49-24.81,23-16.82-3-33.66-6.57-50.84-5.14-11.45,1.65-22.34-5.13-21.67-17.67l0-9.09c.73-13.62,9.45-29.11,22.89-34,17.4-5.69,31.48-7.93,49.54-4.89,14.51,5.38,24.36,23.29,24.82,38.24Z" transform="translate(-1.57)"/><path class="cls-2" d="M327,149c.25,14.24-11.62,28.47-25.76,29.86-18.47-.38-36.13-3.26-54.33-6.3a28.78,28.78,0,0,1-25.26-27l-.08-8.95c-.91-13.19,10.84-18.33,22.12-15.75,19.41,1.6,37.62-.79,56.79-3.7,13.28-1.63,27.3,7.89,26.54,22.42Z" transform="translate(-1.57)"/><path class="cls-2" d="M435.25,145.53c2.49,13.89-10.53,24.66-23.44,23.77-18-2.12-35.64-3.83-53.83-3.2-12.41,1.32-24.25-6.27-23.95-19.69,0-3.62,0-5.43,0-9.05.62-13.6,11.21-25.6,24.66-28.26,16.37-3.84,33.78-9.29,50.82-7.36,14.09,3.24,23.21,20.75,24.67,34.21C434.61,139.78,434.84,141.7,435.25,145.53Z" transform="translate(-1.57)"/><path class="cls-2" d="M109.73,204.93c-1.8,13.93-14.21,24.35-27.64,26-17.72,1.64-35.43,3.33-53.18,4.66-15.4,2-23.54-13.89-22.2-27,.53-4.28.81-6.43,1.32-10.68C9.91,185,20,170.45,35,174.38c18.1,4,34.75,7.3,53.31,6.41,10.33-1.6,25.67,1,22.7,15.33C110.55,199.65,110.27,201.41,109.73,204.93Z" transform="translate(-1.57)"/><path class="cls-2" d="M218,199.59c1.09,13.39-11.64,22.13-23.79,22.76-18.62,1-37.22,2.23-55.82,3.56-13.65,1.61-24.31-10.69-22.86-23.64.49-3.71.74-5.57,1.19-9.28,2-11.66,9.26-31,23.46-32.48,17.18-1.52,34,2,50.82,5,12.65,3.29,23.86,13.06,26.13,26.29C217.48,194.93,217.67,196.48,218,199.59Z" transform="translate(-1.57)"/><path class="cls-2" d="M325.85,206.12a23.92,23.92,0,0,1-25.13,22.13c-16.86-1.12-33.65-3.16-50.5-4.55-12.44-.61-23.91-11.23-26.1-23.22-.36-3.11-.55-4.65-.89-7.79-1-13.12,11.2-22.34,23.67-20.14,18.2,3,35.86,5.92,54.33,6.3,11.59-.38,25.7,5.26,25,19C326.12,201.18,326,202.82,325.85,206.12Z" transform="translate(-1.57)"/><path class="cls-2" d="M432.37,206.3c-2.46,13-14.61,24.4-28,24.47-16.25-.93-32.48-2.21-48.75-2.82-12.55-.82-23.29-11.06-22.77-24,.19-3.46.29-5.18.47-8.65,1.32-12.27,10.49-28.7,24.63-29.21,18.2-.63,35.79,1.08,53.83,3.2,12.4,2.3,26.25,13.36,22.5,27.65C433.58,200.69,433.16,202.56,432.37,206.3Z" transform="translate(-1.57)"/><ellipse class="cls-3" cx="55.88" cy="80.74" rx="11.63" ry="5.67"/><ellipse class="cls-3" cx="160.89" cy="69.41" rx="9.42" ry="5.67" transform="translate(-14.43 46.75) rotate(-15.91)"/><ellipse class="cls-3" cx="264.78" cy="93.06" rx="5.67" ry="9.85" transform="translate(40.19 263.44) rotate(-56.74)"/><ellipse class="cls-3" cx="380.32" cy="78.99" rx="5.81" ry="7.42"/><ellipse class="cls-3" cx="391.76" cy="135.28" rx="6.37" ry="10.02" transform="translate(-20.46 191.34) rotate(-26.82)"/><ellipse class="cls-3" cx="382.93" cy="200.96" rx="8.72" ry="7.17"/><ellipse class="cls-3" cx="279.28" cy="205.63" rx="5.67" ry="11.63" transform="translate(23.12 441.14) rotate(-79.14)"/><ellipse class="cls-3" cx="165.43" cy="186.56" rx="5.67" ry="11.7" transform="matrix(0.19, -0.98, 0.98, 0.19, -50.54, 313.87)"/><ellipse class="cls-3" cx="52.56" cy="208.13" rx="5.67" ry="10.22" transform="matrix(0.13, -0.99, 0.99, 0.13, -162.22, 233.11)"/><ellipse class="cls-3" cx="64.87" cy="148.11" rx="5.67" ry="10.77" transform="translate(-94.38 183.9) rotate(-79.14)"/><ellipse class="cls-3" cx="165.4" cy="123.33" rx="10.15" ry="6.58"/><ellipse class="cls-3" cx="271.26" cy="141.96" rx="10.15" ry="4.86"/><path class="cls-4" d="M35.41,22.31l6.73,2.13A15.09,15.09,0,0,1,37,32.8a14.67,14.67,0,0,1-9.13,2.73,14.78,14.78,0,0,1-11.25-4.68q-4.41-4.68-4.41-12.79,0-8.58,4.43-13.32A15.19,15.19,0,0,1,28.28,0,14.29,14.29,0,0,1,38.53,3.73,13.55,13.55,0,0,1,42,10.05L35.17,11.7a7.1,7.1,0,0,0-7.24-5.77,7.82,7.82,0,0,0-6.2,2.74q-2.38,2.74-2.38,8.88,0,6.52,2.34,9.28a7.61,7.61,0,0,0,6.09,2.77,7,7,0,0,0,4.76-1.76A10.21,10.21,0,0,0,35.41,22.31Z" transform="translate(-1.57)"/><path class="cls-4" d="M62.46,27,69,28.13a10.76,10.76,0,0,1-4,5.5,11.74,11.74,0,0,1-6.83,1.89q-6.49,0-9.61-4.24a14.25,14.25,0,0,1-2.46-8.58q0-6.19,3.23-9.69a10.65,10.65,0,0,1,8.18-3.5,11,11,0,0,1,8.77,3.67q3.21,3.67,3.07,11.24H52.87A6.66,6.66,0,0,0,54.46,29a5,5,0,0,0,3.8,1.63,4,4,0,0,0,2.6-.84A5.21,5.21,0,0,0,62.46,27Zm.38-6.66A6.34,6.34,0,0,0,61.35,16a4.75,4.75,0,0,0-7,.08A6.08,6.08,0,0,0,53,20.37Z" transform="translate(-1.57)"/><path class="cls-4" d="M74.74,34.95V.59h6.59V34.95Z" transform="translate(-1.57)"/><path class="cls-4" d="M88.07,34.95V.59h6.59V34.95Z" transform="translate(-1.57)"/><path class="cls-4" d="M117.79,34.95V31.22a9.59,9.59,0,0,1-3.57,3.14,10,10,0,0,1-4.68,1.15,9.14,9.14,0,0,1-4.5-1.1,6.5,6.5,0,0,1-2.88-3.09,13.81,13.81,0,0,1-.89-5.51V10.05h6.59V21.49a31.72,31.72,0,0,0,.36,6.43,3.51,3.51,0,0,0,1.32,1.88,4.07,4.07,0,0,0,2.44.69,5.18,5.18,0,0,0,3-.93,4.71,4.71,0,0,0,1.83-2.3q.49-1.37.49-6.71V10.05h6.59V34.95Z" transform="translate(-1.57)"/><path class="cls-4" d="M130.73,34.95V.59h6.59V34.95Z" transform="translate(-1.57)"/><path class="cls-4" d="M149,17.65l-6-1.08a9.31,9.31,0,0,1,3.47-5.34q2.46-1.73,7.31-1.73a15.76,15.76,0,0,1,6.56,1,6.55,6.55,0,0,1,3,2.65q.88,1.61.88,5.89l-.07,7.69a26.69,26.69,0,0,0,.32,4.84,14.13,14.13,0,0,0,1.18,3.34h-6.52q-.26-.66-.63-1.95-.16-.59-.23-.77a11.87,11.87,0,0,1-3.61,2.46,10.34,10.34,0,0,1-4.1.82,8.48,8.48,0,0,1-6.06-2.09,6.93,6.93,0,0,1-2.21-5.27,7.08,7.08,0,0,1,1-3.76,6.58,6.58,0,0,1,2.82-2.53,22.07,22.07,0,0,1,5.24-1.54,35.88,35.88,0,0,0,6.4-1.62V18a3.41,3.41,0,0,0-.94-2.71,5.62,5.62,0,0,0-3.54-.81,4.71,4.71,0,0,0-2.74.69A4.8,4.8,0,0,0,149,17.65ZM157.8,23a41.17,41.17,0,0,1-4,1,12.07,12.07,0,0,0-3.59,1.15,2.75,2.75,0,0,0-1.29,2.32,3.23,3.23,0,0,0,1,2.39,3.6,3.6,0,0,0,2.63,1A5.7,5.7,0,0,0,156,29.7a4.13,4.13,0,0,0,1.57-2.18,13,13,0,0,0,.26-3.21Z" transform="translate(-1.57)"/><path class="cls-4" d="M177.07,34.95h-6.59V10.05h6.12v3.54a10.64,10.64,0,0,1,2.82-3.3,5.2,5.2,0,0,1,2.85-.8,8.36,8.36,0,0,1,4.34,1.24l-2,5.74a5.78,5.78,0,0,0-3.09-1.08,3.66,3.66,0,0,0-2.34.76,5.21,5.21,0,0,0-1.51,2.75,39.12,39.12,0,0,0-.55,8.34Z" transform="translate(-1.57)"/><path class="cls-5" d="M201.19,35.78V27.46h-3v-1.7h8v1.7h-3v8.33Z" transform="translate(-1.57)"/><path class="cls-5" d="M209.39,25.76v3.68a2.88,2.88,0,0,1,3.42-.84,2,2,0,0,1,.8.63,2.27,2.27,0,0,1,.37.85,7.58,7.58,0,0,1,.1,1.44v4.26h-1.92V31.95A5.68,5.68,0,0,0,212,30.5a1,1,0,0,0-.39-.49,1.25,1.25,0,0,0-.69-.18,1.59,1.59,0,0,0-.85.23,1.34,1.34,0,0,0-.55.7,4.19,4.19,0,0,0-.17,1.38v3.64h-1.92v-10Z" transform="translate(-1.57)"/><path class="cls-5" d="M220.23,33.47l1.91.32A3.14,3.14,0,0,1,221,35.4a3.42,3.42,0,0,1-2,.55,3.25,3.25,0,0,1-2.8-1.24,4.16,4.16,0,0,1-.72-2.5,4,4,0,0,1,.94-2.83,3.11,3.11,0,0,1,2.39-1,3.22,3.22,0,0,1,2.56,1.07,4.73,4.73,0,0,1,.9,3.28h-4.81A1.94,1.94,0,0,0,217.9,34a1.45,1.45,0,0,0,1.11.48,1.18,1.18,0,0,0,.76-.25A1.52,1.52,0,0,0,220.23,33.47Zm.11-1.94a1.85,1.85,0,0,0-.43-1.27,1.39,1.39,0,0,0-2,0,1.77,1.77,0,0,0-.4,1.24Z" transform="translate(-1.57)"/><path class="cls-5" d="M231.33,25.76h2V32.1a6.47,6.47,0,0,1-.22,1.91,2.71,2.71,0,0,1-1.07,1.4,3.53,3.53,0,0,1-2,.53,3,3,0,0,1-2.28-.83,3.4,3.4,0,0,1-.81-2.44l1.91-.22a2.67,2.67,0,0,0,.25,1.22,1.09,1.09,0,0,0,1,.54,1.1,1.1,0,0,0,1-.39,3,3,0,0,0,.28-1.6Z" transform="translate(-1.57)"/><path class="cls-5" d="M236.92,30.74l-1.74-.31a2.71,2.71,0,0,1,1-1.56,3.7,3.7,0,0,1,2.13-.51,4.61,4.61,0,0,1,1.91.3,1.91,1.91,0,0,1,.89.77,4,4,0,0,1,.26,1.72l0,2.24a7.78,7.78,0,0,0,.09,1.41,4.13,4.13,0,0,0,.35,1h-1.9q-.08-.19-.18-.57l-.07-.23a3.49,3.49,0,0,1-1.05.72,3,3,0,0,1-1.2.24,2.47,2.47,0,0,1-1.77-.61A2,2,0,0,1,235,33.8a2.07,2.07,0,0,1,.29-1.1,1.92,1.92,0,0,1,.82-.74,6.41,6.41,0,0,1,1.53-.45,10.52,10.52,0,0,0,1.87-.47v-.19a1,1,0,0,0-.27-.79,1.64,1.64,0,0,0-1-.24,1.38,1.38,0,0,0-.8.2A1.4,1.4,0,0,0,236.92,30.74Zm2.57,1.56q-.37.12-1.17.29a3.5,3.5,0,0,0-1,.33.8.8,0,0,0-.38.68.94.94,0,0,0,.3.7,1.05,1.05,0,0,0,.77.29,1.67,1.67,0,0,0,1-.34,1.21,1.21,0,0,0,.46-.64,3.79,3.79,0,0,0,.08-.94Z" transform="translate(-1.57)"/><path class="cls-5" d="M245.27,35.78l-2.93-7.26h2l1.37,3.71.4,1.24c.1-.31.17-.52.2-.62s.13-.41.21-.62l1.38-3.71h2L247,35.78Z" transform="translate(-1.57)"/><path class="cls-5" d="M252.5,30.74l-1.74-.31a2.71,2.71,0,0,1,1-1.56,3.7,3.7,0,0,1,2.13-.51,4.61,4.61,0,0,1,1.91.3,1.91,1.91,0,0,1,.89.77,4,4,0,0,1,.26,1.72l0,2.24a7.78,7.78,0,0,0,.09,1.41,4.13,4.13,0,0,0,.35,1h-1.9q-.08-.19-.18-.57l-.07-.23a3.49,3.49,0,0,1-1.05.72,3,3,0,0,1-1.2.24,2.47,2.47,0,0,1-1.77-.61,2,2,0,0,1-.65-1.54,2.07,2.07,0,0,1,.29-1.1,1.92,1.92,0,0,1,.82-.74,6.41,6.41,0,0,1,1.53-.45,10.52,10.52,0,0,0,1.87-.47v-.19a1,1,0,0,0-.27-.79,1.64,1.64,0,0,0-1-.24,1.38,1.38,0,0,0-.8.2A1.4,1.4,0,0,0,252.5,30.74Zm2.57,1.56q-.37.12-1.17.29a3.5,3.5,0,0,0-1,.33.8.8,0,0,0-.38.68.94.94,0,0,0,.3.7,1.05,1.05,0,0,0,.77.29,1.67,1.67,0,0,0,1-.34,1.21,1.21,0,0,0,.46-.64,3.79,3.79,0,0,0,.08-.94Z" transform="translate(-1.57)"/><path class="cls-5" d="M258.35,32.52l2-.19a2.41,2.41,0,0,0,.72,1.46,2.18,2.18,0,0,0,1.47.46,2.25,2.25,0,0,0,1.47-.41,1.23,1.23,0,0,0,.5-1,.91.91,0,0,0-.21-.61,1.67,1.67,0,0,0-.73-.43q-.36-.12-1.62-.44a5.51,5.51,0,0,1-2.28-1,2.61,2.61,0,0,1-.92-2,2.58,2.58,0,0,1,.43-1.43,2.72,2.72,0,0,1,1.25-1,5,5,0,0,1,2-.35,4.23,4.23,0,0,1,2.84.83,2.92,2.92,0,0,1,1,2.21l-2,.09a1.72,1.72,0,0,0-.56-1.11,2,2,0,0,0-1.28-.34,2.31,2.31,0,0,0-1.38.36.73.73,0,0,0-.32.62.77.77,0,0,0,.3.61,5.33,5.33,0,0,0,1.86.67,9.83,9.83,0,0,1,2.18.72,2.82,2.82,0,0,1,1.11,1,3.16,3.16,0,0,1-.08,3.21,2.86,2.86,0,0,1-1.35,1.12,5.67,5.67,0,0,1-2.18.37,4.34,4.34,0,0,1-2.92-.88A3.82,3.82,0,0,1,258.35,32.52Z" transform="translate(-1.57)"/><path class="cls-5" d="M274.51,30.67l-1.89.34a1.37,1.37,0,0,0-.43-.85,1.31,1.31,0,0,0-.88-.29,1.44,1.44,0,0,0-1.15.5,2.54,2.54,0,0,0-.43,1.66,2.94,2.94,0,0,0,.43,1.83,1.43,1.43,0,0,0,1.17.53,1.29,1.29,0,0,0,.9-.31,1.87,1.87,0,0,0,.49-1.07l1.89.32a3.35,3.35,0,0,1-1.13,2,3.5,3.5,0,0,1-2.24.66,3.32,3.32,0,0,1-2.54-1,3.9,3.9,0,0,1-.95-2.78,3.91,3.91,0,0,1,1-2.8,3.38,3.38,0,0,1,2.57-1,3.51,3.51,0,0,1,2.11.57A3.16,3.16,0,0,1,274.51,30.67Z" transform="translate(-1.57)"/><path class="cls-5" d="M277.81,35.78h-1.92V28.52h1.78v1a3.09,3.09,0,0,1,.82-1,1.51,1.51,0,0,1,.83-.23,2.43,2.43,0,0,1,1.26.36L280,30.4a1.68,1.68,0,0,0-.9-.31,1.07,1.07,0,0,0-.68.22,1.52,1.52,0,0,0-.44.8,11.42,11.42,0,0,0-.16,2.43Z" transform="translate(-1.57)"/><path class="cls-5" d="M281.42,27.54V25.76h1.92v1.78Zm0,8.24V28.52h1.92v7.26Z" transform="translate(-1.57)"/><path class="cls-5" d="M285.25,28.52H287v1.07a2.67,2.67,0,0,1,.94-.89,2.59,2.59,0,0,1,1.32-.34,2.77,2.77,0,0,1,2.15,1,4,4,0,0,1,.88,2.76,4.13,4.13,0,0,1-.89,2.83,2.77,2.77,0,0,1-2.15,1,2.45,2.45,0,0,1-1.09-.24,3.7,3.7,0,0,1-1-.82v3.66h-1.92Zm1.9,3.51a2.79,2.79,0,0,0,.49,1.81,1.49,1.49,0,0,0,1.18.58,1.39,1.39,0,0,0,1.11-.54,2.76,2.76,0,0,0,.44-1.76,2.62,2.62,0,0,0-.46-1.7,1.42,1.42,0,0,0-1.13-.55,1.47,1.47,0,0,0-1.17.54A2.42,2.42,0,0,0,287.15,32Z" transform="translate(-1.57)"/><path class="cls-5" d="M297.19,28.52v1.53h-1.31V33a7.3,7.3,0,0,0,0,1,.42.42,0,0,0,.17.24.54.54,0,0,0,.32.1,2.49,2.49,0,0,0,.77-.18l.16,1.49a3.82,3.82,0,0,1-1.52.29,2.41,2.41,0,0,1-.94-.17,1.37,1.37,0,0,1-.61-.45,1.78,1.78,0,0,1-.27-.75,9.32,9.32,0,0,1-.06-1.35V30.05h-.88V28.52h.88V27.08L295.88,26v2.56Z" transform="translate(-1.57)"/><path class="cls-5" d="M301.91,32.52l2-.19a2.41,2.41,0,0,0,.72,1.46,2.18,2.18,0,0,0,1.47.46,2.25,2.25,0,0,0,1.47-.41,1.23,1.23,0,0,0,.5-1,.91.91,0,0,0-.21-.61,1.67,1.67,0,0,0-.73-.43q-.36-.12-1.62-.44a5.51,5.51,0,0,1-2.28-1,2.61,2.61,0,0,1-.92-2,2.58,2.58,0,0,1,.43-1.43,2.72,2.72,0,0,1,1.25-1,5,5,0,0,1,2-.35,4.23,4.23,0,0,1,2.84.83,2.92,2.92,0,0,1,1,2.21l-2,.09a1.72,1.72,0,0,0-.56-1.11,2,2,0,0,0-1.28-.34,2.31,2.31,0,0,0-1.38.36.73.73,0,0,0-.32.62.77.77,0,0,0,.3.61,5.33,5.33,0,0,0,1.86.67,9.83,9.83,0,0,1,2.18.72,2.82,2.82,0,0,1,1.11,1,3.16,3.16,0,0,1-.08,3.21,2.86,2.86,0,0,1-1.35,1.12A5.67,5.67,0,0,1,306,36a4.34,4.34,0,0,1-2.92-.88A3.82,3.82,0,0,1,301.91,32.52Z" transform="translate(-1.57)"/><path class="cls-5" d="M311.7,28.52h1.79v1.07a2.67,2.67,0,0,1,.94-.89,2.59,2.59,0,0,1,1.32-.34,2.77,2.77,0,0,1,2.15,1,4,4,0,0,1,.88,2.76,4.13,4.13,0,0,1-.89,2.83,2.77,2.77,0,0,1-2.15,1,2.45,2.45,0,0,1-1.09-.24,3.7,3.7,0,0,1-1-.82v3.66H311.7ZM313.6,32a2.79,2.79,0,0,0,.49,1.81,1.49,1.49,0,0,0,1.18.58,1.39,1.39,0,0,0,1.11-.54,2.76,2.76,0,0,0,.44-1.76,2.62,2.62,0,0,0-.46-1.7,1.42,1.42,0,0,0-1.13-.55,1.47,1.47,0,0,0-1.17.54A2.42,2.42,0,0,0,313.6,32Z" transform="translate(-1.57)"/><path class="cls-5" d="M322.14,35.78h-1.92V28.52H322v1a3.09,3.09,0,0,1,.82-1,1.51,1.51,0,0,1,.83-.23,2.43,2.43,0,0,1,1.26.36l-.59,1.67a1.68,1.68,0,0,0-.9-.31,1.07,1.07,0,0,0-.68.22,1.52,1.52,0,0,0-.44.8,11.42,11.42,0,0,0-.16,2.43Z" transform="translate(-1.57)"/><path class="cls-5" d="M330,33.47l1.91.32a3.14,3.14,0,0,1-1.17,1.6,3.42,3.42,0,0,1-2,.55,3.25,3.25,0,0,1-2.8-1.24,4.16,4.16,0,0,1-.72-2.5,4,4,0,0,1,.94-2.83,3.11,3.11,0,0,1,2.39-1,3.22,3.22,0,0,1,2.56,1.07,4.73,4.73,0,0,1,.9,3.28h-4.81a1.94,1.94,0,0,0,.46,1.33,1.45,1.45,0,0,0,1.11.48,1.18,1.18,0,0,0,.76-.25A1.52,1.52,0,0,0,330,33.47Zm.11-1.94a1.85,1.85,0,0,0-.43-1.27,1.39,1.39,0,0,0-2,0,1.77,1.77,0,0,0-.4,1.24Z" transform="translate(-1.57)"/><path class="cls-5" d="M335,30.74l-1.74-.31a2.71,2.71,0,0,1,1-1.56,3.7,3.7,0,0,1,2.13-.51,4.61,4.61,0,0,1,1.91.3,1.91,1.91,0,0,1,.89.77,4,4,0,0,1,.26,1.72l0,2.24a7.78,7.78,0,0,0,.09,1.41,4.13,4.13,0,0,0,.35,1h-1.9q-.08-.19-.18-.57l-.07-.23a3.49,3.49,0,0,1-1.05.72,3,3,0,0,1-1.2.24,2.47,2.47,0,0,1-1.77-.61A2,2,0,0,1,333,33.8a2.07,2.07,0,0,1,.29-1.1,1.92,1.92,0,0,1,.82-.74,6.41,6.41,0,0,1,1.53-.45,10.52,10.52,0,0,0,1.87-.47v-.19a1,1,0,0,0-.27-.79,1.64,1.64,0,0,0-1-.24,1.38,1.38,0,0,0-.8.2A1.4,1.4,0,0,0,335,30.74Zm2.57,1.56q-.37.12-1.17.29a3.5,3.5,0,0,0-1,.33.8.8,0,0,0-.38.68.94.94,0,0,0,.3.7,1.05,1.05,0,0,0,.77.29,1.67,1.67,0,0,0,1-.34,1.21,1.21,0,0,0,.46-.64,3.79,3.79,0,0,0,.08-.94Z" transform="translate(-1.57)"/><path class="cls-5" d="M348,35.78H346.2V34.72a2.88,2.88,0,0,1-1,.93,2.69,2.69,0,0,1-1.22.3,2.76,2.76,0,0,1-2.14-1,4.1,4.1,0,0,1-.89-2.81,4.06,4.06,0,0,1,.87-2.81,2.83,2.83,0,0,1,2.19-1,2.72,2.72,0,0,1,2.11,1V25.76H348ZM342.85,32a3.32,3.32,0,0,0,.32,1.68,1.45,1.45,0,0,0,1.3.75,1.41,1.41,0,0,0,1.13-.56,2.6,2.6,0,0,0,.46-1.68,2.85,2.85,0,0,0-.45-1.8,1.48,1.48,0,0,0-2.3,0A2.46,2.46,0,0,0,342.85,32Z" transform="translate(-1.57)"/><path class="cls-5" d="M349.2,33.71l1.93-.29a1.41,1.41,0,0,0,.5.85,1.68,1.68,0,0,0,1.05.29,1.91,1.91,0,0,0,1.12-.27.61.61,0,0,0,.25-.51.5.5,0,0,0-.14-.36,1.52,1.52,0,0,0-.64-.25,10.37,10.37,0,0,1-2.95-.94,1.87,1.87,0,0,1-.86-1.63,2,2,0,0,1,.75-1.59,3.48,3.48,0,0,1,2.31-.64,4,4,0,0,1,2.21.49,2.48,2.48,0,0,1,1,1.44l-1.81.33a1.12,1.12,0,0,0-.44-.65,1.61,1.61,0,0,0-.93-.23,2.08,2.08,0,0,0-1.09.21.45.45,0,0,0-.22.39.42.42,0,0,0,.19.35,7.24,7.24,0,0,0,1.79.54,5.33,5.33,0,0,1,2.14.85,1.78,1.78,0,0,1,.6,1.43,2.19,2.19,0,0,1-.83,1.72,3.69,3.69,0,0,1-2.47.72,4.05,4.05,0,0,1-2.35-.6A2.77,2.77,0,0,1,349.2,33.71Z" transform="translate(-1.57)"/><path class="cls-5" d="M359.57,25.76v3.68A2.88,2.88,0,0,1,363,28.6a2,2,0,0,1,.8.63,2.27,2.27,0,0,1,.37.85,7.58,7.58,0,0,1,.1,1.44v4.26h-1.92V31.95a5.68,5.68,0,0,0-.11-1.45,1,1,0,0,0-.39-.49,1.25,1.25,0,0,0-.69-.18,1.59,1.59,0,0,0-.85.23,1.34,1.34,0,0,0-.55.7,4.19,4.19,0,0,0-.17,1.38v3.64h-1.92v-10Z" transform="translate(-1.57)"/><path class="cls-5" d="M370.42,33.47l1.91.32a3.14,3.14,0,0,1-1.17,1.6,3.42,3.42,0,0,1-2,.55,3.25,3.25,0,0,1-2.8-1.24,4.16,4.16,0,0,1-.72-2.5,4,4,0,0,1,.94-2.83,3.11,3.11,0,0,1,2.39-1,3.22,3.22,0,0,1,2.56,1.07,4.73,4.73,0,0,1,.9,3.28h-4.81a1.94,1.94,0,0,0,.46,1.33,1.45,1.45,0,0,0,1.11.48,1.18,1.18,0,0,0,.76-.25A1.52,1.52,0,0,0,370.42,33.47Zm.11-1.94a1.85,1.85,0,0,0-.43-1.27,1.39,1.39,0,0,0-2,0,1.77,1.77,0,0,0-.4,1.24Z" transform="translate(-1.57)"/><path class="cls-5" d="M378.2,33.47l1.91.32A3.14,3.14,0,0,1,379,35.4a3.42,3.42,0,0,1-2,.55,3.25,3.25,0,0,1-2.8-1.24,4.16,4.16,0,0,1-.72-2.5,4,4,0,0,1,.94-2.83,3.11,3.11,0,0,1,2.39-1,3.22,3.22,0,0,1,2.56,1.07,4.73,4.73,0,0,1,.9,3.28h-4.81a1.94,1.94,0,0,0,.46,1.33,1.45,1.45,0,0,0,1.11.48,1.18,1.18,0,0,0,.76-.25A1.52,1.52,0,0,0,378.2,33.47Zm.11-1.94a1.85,1.85,0,0,0-.43-1.27,1.39,1.39,0,0,0-2,0,1.77,1.77,0,0,0-.4,1.24Z" transform="translate(-1.57)"/><path class="cls-5" d="M385.11,28.52v1.53H383.8V33a7.42,7.42,0,0,0,0,1,.42.42,0,0,0,.17.24.55.55,0,0,0,.33.1,2.49,2.49,0,0,0,.77-.18l.16,1.49a3.82,3.82,0,0,1-1.52.29,2.4,2.4,0,0,1-.94-.17,1.37,1.37,0,0,1-.61-.45,1.78,1.78,0,0,1-.27-.75,9.32,9.32,0,0,1-.06-1.35V30.05H381V28.52h.88V27.08L383.8,26v2.56Z" transform="translate(-1.57)"/><path class="cls-5" d="M390.35,35.78v-10h7.43v1.7h-5.41v2.22h5v1.69h-5v2.73H398v1.69Z" transform="translate(-1.57)"/><path class="cls-5" d="M406.28,35.78h-1.92V32.08a5.73,5.73,0,0,0-.12-1.52,1.07,1.07,0,0,0-.4-.54,1.14,1.14,0,0,0-.67-.19,1.54,1.54,0,0,0-.9.27,1.38,1.38,0,0,0-.54.72,6.28,6.28,0,0,0-.15,1.67v3.29h-1.92V28.52h1.78v1.07a3,3,0,0,1,3.55-1,2,2,0,0,1,.8.58,2.1,2.1,0,0,1,.38.81,6,6,0,0,1,.11,1.29Z" transform="translate(-1.57)"/><path class="cls-5" d="M408,36.26l2.19.27a.75.75,0,0,0,.25.53,1.44,1.44,0,0,0,.86.21,2.24,2.24,0,0,0,1.13-.23.94.94,0,0,0,.38-.49,2.94,2.94,0,0,0,.09-.88V34.61a2.6,2.6,0,0,1-2.17,1.18,2.68,2.68,0,0,1-2.32-1.24,4.2,4.2,0,0,1-.67-2.43,4,4,0,0,1,.88-2.79,2.84,2.84,0,0,1,2.18-1,2.66,2.66,0,0,1,2.22,1.18v-1h1.8V35a6.51,6.51,0,0,1-.21,1.92,2.39,2.39,0,0,1-.59,1,2.64,2.64,0,0,1-1,.57,5.38,5.38,0,0,1-1.62.21,4.18,4.18,0,0,1-2.62-.63,2,2,0,0,1-.77-1.6C408,36.43,408,36.35,408,36.26ZM409.76,32a2.62,2.62,0,0,0,.45,1.69,1.38,1.38,0,0,0,1.1.54,1.53,1.53,0,0,0,1.19-.55A2.4,2.4,0,0,0,413,32a2.54,2.54,0,0,0-.46-1.67,1.48,1.48,0,0,0-1.18-.55,1.42,1.42,0,0,0-1.14.54A2.52,2.52,0,0,0,409.76,32Z" transform="translate(-1.57)"/><path class="cls-5" d="M416.78,27.54V25.76h1.92v1.78Zm0,8.24V28.52h1.92v7.26Z" transform="translate(-1.57)"/><path class="cls-5" d="M427.27,35.78h-1.92V32.08a5.73,5.73,0,0,0-.12-1.52,1.07,1.07,0,0,0-.4-.54,1.14,1.14,0,0,0-.67-.19,1.54,1.54,0,0,0-.9.27,1.38,1.38,0,0,0-.54.72,6.28,6.28,0,0,0-.15,1.67v3.29h-1.92V28.52h1.78v1.07a3,3,0,0,1,3.55-1,2,2,0,0,1,.8.58,2.1,2.1,0,0,1,.38.81,6,6,0,0,1,.11,1.29Z" transform="translate(-1.57)"/><path class="cls-5" d="M433.42,33.47l1.91.32a3.14,3.14,0,0,1-1.17,1.6,3.42,3.42,0,0,1-2,.55,3.25,3.25,0,0,1-2.8-1.24,4.16,4.16,0,0,1-.72-2.5,4,4,0,0,1,.94-2.83,3.11,3.11,0,0,1,2.39-1,3.22,3.22,0,0,1,2.56,1.07,4.74,4.74,0,0,1,.9,3.28h-4.81a1.94,1.94,0,0,0,.46,1.33,1.45,1.45,0,0,0,1.11.48,1.18,1.18,0,0,0,.76-.25A1.53,1.53,0,0,0,433.42,33.47Zm.11-1.94a1.85,1.85,0,0,0-.43-1.27,1.39,1.39,0,0,0-2,0,1.77,1.77,0,0,0-.4,1.24Z" transform="translate(-1.57)"/></g></g></svg>