<svg xmlns="http://www.w3.org/2000/svg" viewBox="0 0 439.44 199.49"><defs><style>.cls-1{fill:#006837;stroke:#006837;}.cls-1,.cls-2{stroke-miterlimit:10;stroke-width:10px;}.cls-2{fill:#5bd870;stroke:#007f17;}.cls-3{fill:#96662c;}.cls-4{fill:#009245;}</style></defs><title>cellular-logo</title><g id="Layer_2" data-name="Layer 2"><g id="Layer_1-2" data-name="Layer 1"><path class="cls-1" d="M432.17,166c-2.45,13-14.51,24.49-27.9,24.57-33-2-66-1.65-99-3.32-27.34-1.39-54.43-5.77-81.85-5.91-64.79-.33-129.91,8.09-194.44,13-15.46,2-23.62-13.94-22.27-27.06,5.29-43.64,6.68-90.62.19-134.18C5.43,20.14,15.37,7.6,29.25,9.44c33.52,2.82,66.5,6.85,100.18,4.22,30-2.35,59.65-6.52,89.84-5.07C244,9.78,268.68,13,293.45,14.2c39.07,1.91,77.12-4.88,115.84-9.1C424.38,3.88,437.44,15,434.85,31,430.61,76.39,441.37,121.27,432.17,166Z" transform="translate(-1.57)"/><path class="cls-2" d="M111.35,46.67c1.75,13.55-11.25,27-24.2,27.61C69.79,72.52,53.06,68,35.81,65.53,23,64.25,10.83,56.13,8.42,43c-.52-3.61-.8-5.42-1.36-9C4.94,20.36,15.58,9.24,29.23,10.37,47.12,11.88,65,13.83,82.87,15.23c12.74,1.45,24.74,10.43,27.42,23.33C110.72,41.79,110.95,43.4,111.35,46.67Z" transform="translate(-1.57)"/><path class="cls-2" d="M215.82,40.87c.83,14.65-15.13,14-24.82,11.35-18.11-3-32.11-.62-49.5,5.23-11,4.61-22.84-.85-24.33-13.16-.4-3.13-.62-4.67-1-7.77-1.42-13.28,10.2-22.66,22.52-23.66C156.11,11.17,173.53,9.42,191,8.4c13.15-.28,25.26,9.89,24.79,23.75C215.83,35.63,215.83,37.38,215.82,40.87Z" transform="translate(-1.57)"/><path class="cls-2" d="M322.06,46.78c4.9,14.55-8.88,24.5-21.61,27-19.19,3-37.41,5.59-56.87,4-14.74-1.56-21.5-22.11-22-34.25,0-3.75,0-5.63.05-9.38,0-12.56,9.73-24.19,22.81-23.88C259.35,11.67,274.29,13,289.25,14c12.67,1.65,24.94,12.46,29.54,24.31C320.12,41.69,320.81,43.38,322.06,46.78Z" transform="translate(-1.57)"/><path class="cls-2" d="M433.88,41.27c-.4,14-11.87,19.59-24.33,18.08-17-1.92-34.46,3.65-50.81,7.54-13.69,4-25-9.1-29.65-20.19-1.27-3.4-2-5.08-3.3-8.47-5.16-13.76,7.23-24.81,20.47-25.42,21.05-2.5,42-5.52,63.12-7.73,15-1.21,28.06,9.89,25.47,25.83C434.46,35.07,434.25,37.16,433.88,41.27Z" transform="translate(-1.57)"/><path class="cls-2" d="M112.95,105.63c.06,14.28-10.36,30.69-24.6,33.93-18.55.88-35.21-2.45-53.31-6.41-13.55-2.65-24.31-15.93-24.87-29.42l.06-9.45C11,81.76,21.08,65,35.8,66.66c17.25,2.54,34,7,51.37,8.71,12.06.45,25.76,7.23,25.75,21Z" transform="translate(-1.57)"/><path class="cls-2" d="M215.83,102.45c.69,13.4-11.88,24.49-24.81,23-16.82-3-33.66-6.57-50.84-5.14-11.45,1.65-22.34-5.13-21.67-17.67l0-9.09c.73-13.62,9.45-29.11,22.89-34,17.4-5.69,31.48-7.93,49.54-4.89,14.51,5.38,24.36,23.29,24.82,38.24Z" transform="translate(-1.57)"/><path class="cls-2" d="M327,107.75c.25,14.24-11.62,28.47-25.76,29.86-18.47-.38-36.13-3.26-54.33-6.3a28.78,28.78,0,0,1-25.26-27l-.08-8.95c-.91-13.19,10.84-18.33,22.12-15.75,19.41,1.6,37.62-.79,56.79-3.7,13.28-1.63,27.3,7.89,26.54,22.42Z" transform="translate(-1.57)"/><path class="cls-2" d="M435.25,104.29c2.49,13.89-10.53,24.66-23.44,23.77-18-2.12-35.64-3.83-53.83-3.2-12.41,1.32-24.25-6.27-23.95-19.69,0-3.62,0-5.43,0-9.05.62-13.6,11.21-25.6,24.66-28.26,16.37-3.84,33.78-9.29,50.82-7.36,14.09,3.24,23.21,20.75,24.67,34.21C434.61,98.54,434.84,100.46,435.25,104.29Z" transform="translate(-1.57)"/><path class="cls-2" d="M109.73,163.7c-1.8,13.93-14.21,24.35-27.64,26-17.72,1.64-35.43,3.33-53.18,4.66-15.4,2-23.54-13.89-22.2-27,.53-4.28.81-6.43,1.32-10.68,1.87-12.93,12-27.46,27-23.53,18.1,4,34.75,7.3,53.31,6.41,10.33-1.6,25.67,1,22.7,15.33C110.55,158.41,110.27,160.17,109.73,163.7Z" transform="translate(-1.57)"/><path class="cls-2" d="M218,158.36c1.09,13.39-11.64,22.13-23.79,22.76-18.62,1-37.22,2.23-55.82,3.56C124.76,186.28,114.11,174,115.56,161c.49-3.71.74-5.57,1.19-9.28,2-11.66,9.26-31,23.46-32.48,17.18-1.52,34,2,50.82,5,12.65,3.29,23.86,13.06,26.13,26.29C217.48,153.69,217.67,155.24,218,158.36Z" transform="translate(-1.57)"/><path class="cls-2" d="M325.85,164.88A23.92,23.92,0,0,1,300.72,187c-16.86-1.12-33.65-3.16-50.5-4.55-12.44-.61-23.91-11.23-26.1-23.22-.36-3.11-.55-4.65-.89-7.79-1-13.12,11.2-22.34,23.67-20.14,18.2,3,35.86,5.92,54.33,6.3,11.59-.38,25.7,5.26,25,19C326.12,159.94,326,161.59,325.85,164.88Z" transform="translate(-1.57)"/><path class="cls-2" d="M432.37,165.07c-2.46,13-14.61,24.4-28,24.47-16.25-.93-32.48-2.21-48.75-2.82-12.55-.82-23.29-11.06-22.77-24,.19-3.46.29-5.18.47-8.65,1.32-12.27,10.49-28.7,24.63-29.21,18.2-.63,35.79,1.08,53.83,3.2,12.4,2.3,26.25,13.36,22.5,27.65C433.58,159.45,433.16,161.32,432.37,165.07Z" transform="translate(-1.57)"/><path class="cls-3" d="M68.92,96.32c-4.68-.07-7-.16-11.71-.28a8.88,8.88,0,0,0-2.72-5A10.4,10.4,0,0,0,49,88.56c-3-.48-5.31.07-7.06,1.62s-2.63,4.42-2.62,8.57c0,4.61.91,8,2.71,10.08a11.39,11.39,0,0,0,7.26,3.85,8.25,8.25,0,0,0,5.57-.76q2.16-1.29,3-5.17c4.7,1.5,7.06,2.28,11.77,3.71Q68,117,62.79,119.68c-3.45,1.76-8.12,2.12-14,1.27-6.64-1-11.9-3.26-15.8-7.07s-5.83-8.73-5.83-15.09S29.13,87.29,33,83.94s9.16-4.57,15.81-3.47a27.53,27.53,0,0,1,13,5.38A22.17,22.17,0,0,1,68.92,96.32Z" transform="translate(-1.57)"/><path class="cls-3" d="M104,113a52.38,52.38,0,0,0,11.57-.75,21.77,21.77,0,0,1-6.86,10.2,19.5,19.5,0,0,1-12,4.11c-7.73.18-13.62-2.68-17.44-7.47a22.16,22.16,0,0,1-4.67-13.79c-.1-6.35,1.77-11,5.58-14.12s8.67-4.41,14.57-4.48c6.63-.08,11.89.93,15.76,3.79s5.73,8,5.66,15.82c-8.9,3-20,3.91-29.34,3a10.06,10.06,0,0,0,3,7.15A9.32,9.32,0,0,0,96.67,119a7.59,7.59,0,0,0,4.61-1.54A8.64,8.64,0,0,0,104,113Zm.48-10.31c-.14-2.92-1.05-5-2.75-6.37a10.29,10.29,0,0,0-12.5.39,7.91,7.91,0,0,0-2.36,6.4A72.68,72.68,0,0,0,104.51,102.74Z" transform="translate(-1.57)"/><path class="cls-3" d="M125.5,118.87l-.09-53.67a56.55,56.55,0,0,1,10.79-5L136,114A81.58,81.58,0,0,0,125.5,118.87Z" transform="translate(-1.57)"/><path class="cls-3" d="M147.44,110.61,148.6,57a95.41,95.41,0,0,1,13.07-1.53l-2.45,53.28A84.78,84.78,0,0,0,147.44,110.61Z" transform="translate(-1.57)"/><path class="cls-3" d="M202.49,111.45l.51-5.69a16,16,0,0,1-7.1,3.54,25.69,25.69,0,0,1-9,.53,23.41,23.41,0,0,1-8.34-2.37,10.84,10.84,0,0,1-5.07-4.93q-1.46-3.09-1.08-8.49l1.72-24.24c5.27.11,7.91.28,13.07.8l-1.56,17.49q-.72,8-.19,9.9a5.75,5.75,0,0,0,2.26,3.13,9.89,9.89,0,0,0,4.51,1.64,11.76,11.76,0,0,0,5.81-.51,6.74,6.74,0,0,0,3.71-2.87q1.1-1.91,1.83-10.07l1.44-16c4.69,1,6.93,1.5,11.07,2.66l-2.4,38.26C209.29,113,207,112.4,202.49,111.45Z" transform="translate(-1.57)"/><path class="cls-3" d="M225.75,118l.19-53.71c2.94,1.16,5.87,2.3,10,3.64l.84,53.7C232.32,120.36,230.28,119.66,225.75,118Z" transform="translate(-1.57)"/><path class="cls-3" d="M256,99.39c-4.16-1.41-6.21-2.18-10.24-3.83,1-3.48,2.87-5.78,5.59-7s6.83-1.3,12.5-.56c5.15.67,9.12,1.48,11.77,2.71A13.63,13.63,0,0,1,281.35,95q1.73,2.53,2,9.17l.42,11.91a35.79,35.79,0,0,0,.93,7.51,20.73,20.73,0,0,0,2.4,5.18c-4.77,0-7.15-.07-11.87-.37q-.52-1-1.29-3.09-.34-.93-.48-1.23a17.22,17.22,0,0,1-6.32,3.22,17.78,17.78,0,0,1-7.27.32,18.32,18.32,0,0,1-10.76-5.2,13.36,13.36,0,0,1-4.05-9.1,8.39,8.39,0,0,1,1.56-5.46,7.93,7.93,0,0,1,4.71-2.88,46.35,46.35,0,0,1,9-.77A48.35,48.35,0,0,0,271.62,103l0-1a5.64,5.64,0,0,0-1.87-4.35c-1.15-.94-3.28-1.56-6.32-2a8.63,8.63,0,0,0-4.75.37A5.62,5.62,0,0,0,256,99.39Zm15.91,10.31a53.67,53.67,0,0,1-7.09.83c-3.22.21-5.29.46-6.25.89a3.26,3.26,0,0,0-2.12,3.23,5.93,5.93,0,0,0,2,4,8,8,0,0,0,4.71,2.25,9.52,9.52,0,0,0,6-1.12,5.38,5.38,0,0,0,2.67-3.13,17.25,17.25,0,0,0,.24-4.95Z" transform="translate(-1.57)"/><path class="cls-3" d="M308.11,127.54c-4.88.58-7.32.78-12.17,1L294.34,90c4.63-.24,7-.44,11.71-1l.17,5.5a21.76,21.76,0,0,1,5.34-5.86,14.7,14.7,0,0,1,5.59-2.16,21,21,0,0,1,8.67.19c-1.64,4-2.44,5.93-4,9.84a13,13,0,0,0-6.07-.56,9.73,9.73,0,0,0-4.52,1.9,9.1,9.1,0,0,0-2.79,4.67q-1,3.23-.67,13.09Z" transform="translate(-1.57)"/><ellipse class="cls-4" cx="55.88" cy="39.51" rx="11.63" ry="5.67"/><ellipse class="cls-4" cx="160.89" cy="28.17" rx="9.42" ry="5.67" transform="translate(-3.13 45.17) rotate(-15.91)"/><ellipse class="cls-4" cx="264.78" cy="51.82" rx="5.67" ry="9.85" transform="translate(74.67 244.82) rotate(-56.74)"/><ellipse class="cls-4" cx="380.32" cy="37.76" rx="5.81" ry="7.42"/><ellipse class="cls-4" cx="391.76" cy="94.04" rx="6.37" ry="10.02" transform="translate(-1.85 186.9) rotate(-26.82)"/><ellipse class="cls-4" cx="382.93" cy="159.72" rx="8.72" ry="7.17"/><ellipse class="cls-4" cx="279.28" cy="164.39" rx="5.67" ry="11.63" transform="translate(63.62 407.68) rotate(-79.14)"/><ellipse class="cls-4" cx="165.43" cy="145.32" rx="5.67" ry="11.7" transform="matrix(0.19, -0.98, 0.98, 0.19, -10.04, 280.4)"/><ellipse class="cls-4" cx="52.56" cy="166.89" rx="5.67" ry="10.22" transform="matrix(0.13, -0.99, 0.99, 0.13, -121.34, 197.24)"/></g></g></svg>